<svg xmlns="http://www.w3.org/2000/svg" viewBox="0 0 24 24" fill="#e50914"><path d="M5.398 0v.006c3.028 0 4.56.016 6.578.048 1.986.032 3.972.072 5.958.144 2.712.076 5.424.18 8.136.252v12.114c-2.712.072-5.424.18-8.136.252-2.01.072-3.96.132-5.97.192-2.046.062-4.122.114-6.198.114v-9.864c.012-.378-.024-.756-.06-1.134-.048-.504-.12-1.008-.24-1.5-.12-.492-.276-.972-.48-1.428-.204-.456-.456-.888-.756-1.296-.3-.408-.648-.78-1.044-1.116-.396-.336-.834-.624-1.314-.864-.48-.24-.996-.432-1.548-.576-.552-.144-1.14-.24-1.764-.288V0z"/></svg>
